<svg width="512" height="512" viewBox="48 48 416 416" fill="none" xmlns="http://www.w3.org/2000/svg" role="img" aria-labelledby="title desc">
    <title id="title">Classroom MikroTik Network Control icon</title>
    <desc id="desc">Router, classroom monitor, network links and protection shield for MikroTik classroom network control.</desc>

    <defs>
        <linearGradient id="bg" x1="64" y1="48" x2="448" y2="464" gradientUnits="userSpaceOnUse">
            <stop offset="0" stop-color="#0F172A"/>
            <stop offset="1" stop-color="#1E3A8A"/>
        </linearGradient>
        <linearGradient id="accent" x1="120" y1="96" x2="408" y2="392" gradientUnits="userSpaceOnUse">
            <stop offset="0" stop-color="#38BDF8"/>
            <stop offset="1" stop-color="#22C55E"/>
        </linearGradient>
        <linearGradient id="shield" x1="312" y1="144" x2="416" y2="304" gradientUnits="userSpaceOnUse">
            <stop offset="0" stop-color="#22C55E"/>
            <stop offset="1" stop-color="#16A34A"/>
        </linearGradient>
        <filter id="shadow" x="36" y="36" width="440" height="440" filterUnits="userSpaceOnUse" color-interpolation-filters="sRGB">
            <feDropShadow dx="0" dy="18" stdDeviation="18" flood-color="#020617" flood-opacity="0.35"/>
        </filter>
    </defs>

    <rect x="48" y="48" width="416" height="416" rx="92" fill="url(#bg)"/>
    <path d="M96 276C96 177.7 175.7 98 274 98C344.1 98 405.2 138.5 434.2 197.5" stroke="#60A5FA" stroke-width="18" stroke-linecap="round" opacity="0.18"/>
    <path d="M92 346C126.4 413.7 196.8 460 278 460C345.8 460 406 427.6 444 377.5" stroke="#22C55E" stroke-width="18" stroke-linecap="round" opacity="0.16"/>

    <g filter="url(#shadow)">
        <rect x="118" y="154" width="250" height="162" rx="26" fill="#E5F2FF"/>
        <rect x="138" y="174" width="210" height="110" rx="16" fill="#0B1220"/>
        <path d="M170 232H220L246 204L286 252L316 220" stroke="url(#accent)" stroke-width="14" stroke-linecap="round" stroke-linejoin="round"/>
        <rect x="214" y="316" width="58" height="32" rx="12" fill="#CBD5E1"/>
        <rect x="178" y="348" width="130" height="24" rx="12" fill="#E5F2FF"/>
    </g>

    <g opacity="0.95">
        <path d="M198 372V404" stroke="#93C5FD" stroke-width="14" stroke-linecap="round"/>
        <path d="M288 372V404" stroke="#93C5FD" stroke-width="14" stroke-linecap="round"/>
        <path d="M198 404H288" stroke="#93C5FD" stroke-width="14" stroke-linecap="round"/>
        <circle cx="154" cy="404" r="24" fill="#38BDF8"/>
        <circle cx="332" cy="404" r="24" fill="#22C55E"/>
        <path d="M178 404H198" stroke="#93C5FD" stroke-width="14" stroke-linecap="round"/>
        <path d="M288 404H308" stroke="#93C5FD" stroke-width="14" stroke-linecap="round"/>
    </g>

    <g filter="url(#shadow)">
        <rect x="128" y="326" width="230" height="70" rx="22" fill="#F8FAFC"/>
        <circle cx="168" cy="361" r="9" fill="#22C55E"/>
        <circle cx="202" cy="361" r="9" fill="#38BDF8"/>
        <circle cx="236" cy="361" r="9" fill="#F59E0B"/>
        <rect x="272" y="350" width="54" height="22" rx="11" fill="#CBD5E1"/>
    </g>

    <g filter="url(#shadow)">
        <path d="M374 120L438 146V205C438 249.8 412.7 289.8 374 309C335.3 289.8 310 249.8 310 205V146L374 120Z" fill="url(#shield)"/>
        <path d="M348 209L367 228L404 185" stroke="#F8FAFC" stroke-width="18" stroke-linecap="round" stroke-linejoin="round"/>
    </g>

    <path d="M154 126C176 104 207.4 92 242 92" stroke="#38BDF8" stroke-width="14" stroke-linecap="round" opacity="0.9"/>
    <path d="M186 138C201 126 220.2 120 242 120" stroke="#38BDF8" stroke-width="14" stroke-linecap="round" opacity="0.55"/>
</svg>